<?xml version="1.0" encoding="utf-8"?>
<!-- Generator: Adobe Illustrator 21.0.0, SVG Export Plug-In . SVG Version: 6.00 Build 0)  -->
<svg version="1.1" id="Слой_1" xmlns="http://www.w3.org/2000/svg" xmlns:xlink="http://www.w3.org/1999/xlink" x="0px" y="0px"
	 viewBox="0 0 634 751" style="enable-background:new 0 0 634 751;" xml:space="preserve">
<style type="text/css">
	.st0{fill:#229D3C;stroke:#000000;stroke-miterlimit:10;}
	.st1{fill:#FFFF00;}
	.st2{fill:#FFFFFF;stroke:#000000;stroke-width:2;stroke-miterlimit:10;}
	.st3{fill:#FF1D25;stroke:#000000;stroke-miterlimit:10;}
	.st4{fill:#FFFF00;stroke:#000000;stroke-width:2;stroke-miterlimit:10;}
	.st5{fill:#2A4BB7;stroke:#000000;stroke-miterlimit:10;}
	.st6{fill:#CC4D27;stroke:#000000;stroke-miterlimit:10;}
	.st7{fill:#FF1D25;stroke:#000000;stroke-width:2;stroke-miterlimit:10;}
	.st8{font-family:'MyriadPro-Regular';}
	.st9{font-size:90.3789px;}
</style>
<g>
	<polygon points="134.5,494.4 165.1,129.3 446.2,385.8 391.3,577.8 	"/>
	<path d="M167.1,134.5l276.2,252.1l-53.7,188l-252.4-82L167.1,134.5 M163,124l-31.1,372.1L393,581l56-196L163,124L163,124z"/>
</g>
<g>
	<polygon points="167.4,124.9 344.3,11.1 619.7,257.4 444.6,383.8 	"/>
	<path d="M344,14.3l271.7,242.9l-171,123.4L171.4,125.2L344,14.3 M344.5,8L163.3,124.5l281,262.6l179.4-129.4L344.5,8L344.5,8z"/>
</g>
<path class="st0" d="M502.7,170l-69,49.6c-3.4,3.4-6.5,0.3-6.5,0.3l-63.5-57.8c-1.4-1.4-1.3-3.6,0.1-5l70.5-49.6
	c1.4-1.4,3.7-1.4,5-0.1l63.3,57.8C504.4,167.1,502.5,170.9,502.7,170z"/>
<g>
	<path class="st1" d="M513.5,298.3c-1.6,0-2.8-1.1-2.8-1.1l-63.5-57.8c-1.1-1.1-1.1-3.1,0.1-4.3l70.4-49.5c0.7-0.7,1.5-1,2.3-1
		c0.8,0,1.5,0.3,2.1,0.8l63.3,57.9c1.1,1.1,0.6,3.2,0.3,3.9l-0.1,0l-69,49.6C515.5,297.8,514.5,298.3,513.5,298.3z"/>
	<path d="M520,185L520,185c0.7,0,1.3,0.2,1.7,0.7l63.2,57.8c0.9,0.9,0.5,2.5,0.3,3.3l-69,49.5l-0.1,0l-0.1,0.1
		c-0.9,0.9-1.8,1.3-2.7,1.3c-1.4,0-2.4-1-2.5-1L447.5,239c-1-1-0.9-2.5,0-3.5l70.4-49.6l0.1,0l0.1-0.1
		C518.6,185.3,519.3,185,520,185 M520,184c-0.9,0-1.9,0.4-2.6,1.1l-70.5,49.6c-1.4,1.4-1.4,3.7-0.1,5l63.5,57.8c0,0,1.3,1.3,3.1,1.3
		c1,0,2.2-0.4,3.4-1.6l69-49.6c0,0.1,0,0.1,0,0.1c0.2,0,1.5-3.2-0.2-4.9L522.4,185C521.8,184.4,520.9,184,520,184L520,184z"/>
</g>
<g>
	<path class="st1" d="M345.2,144.8c-1.6,0-2.8-1.1-2.8-1.1l-63.5-57.8c-1.1-1.1-1.1-3.1,0.1-4.3l70.4-49.5c0.7-0.7,1.5-1,2.3-1
		c0.8,0,1.5,0.3,2.1,0.8l63.3,57.9c1.1,1.1,0.6,3.2,0.3,3.9l-0.1,0l-69,49.6C347.3,144.3,346.3,144.8,345.2,144.8z"/>
	<path d="M351.8,31.6L351.8,31.6c0.7,0,1.3,0.2,1.7,0.7l63.2,57.8c0.9,0.9,0.5,2.5,0.3,3.3l-69,49.5l-0.1,0l-0.1,0.1
		c-0.9,0.9-1.8,1.3-2.7,1.3c-1.4,0-2.4-1-2.5-1l-63.5-57.7c-1-1-0.9-2.5,0-3.5l70.4-49.6l0.1,0l0.1-0.1
		C350.4,31.8,351,31.6,351.8,31.6 M351.8,30.6c-0.9,0-1.9,0.4-2.6,1.1l-70.5,49.6c-1.4,1.4-1.4,3.7-0.1,5l63.5,57.8
		c0,0,1.3,1.3,3.1,1.3c1,0,2.2-0.4,3.4-1.6l69-49.6c0,0.1,0,0.1,0,0.1c0.2,0,1.5-3.2-0.2-4.9l-63.3-57.8
		C353.5,30.9,352.6,30.6,351.8,30.6L351.8,30.6z"/>
</g>
<path class="st0" d="M423.2,227.3l-69,49.6c-3.4,3.4-6.5,0.3-6.5,0.3l-63.5-57.8c-1.4-1.4-1.3-3.6,0.1-5l70.5-49.6
	c1.4-1.4,3.7-1.4,5-0.1l63.3,57.8C424.9,224.4,423,228.2,423.2,227.3z"/>
<path class="st0" d="M506.4,306.8l-69,49.6c-3.4,3.4-6.5,0.3-6.5,0.3l-63.5-57.8c-1.4-1.4-1.3-3.6,0.1-5l70.5-49.6
	c1.4-1.4,3.7-1.4,5-0.1l63.3,57.8C508.1,303.9,506.2,307.7,506.4,306.8z"/>
<path class="st0" d="M338.1,149.6l-69,49.6c-3.4,3.4-6.5,0.3-6.5,0.3l-63.5-57.8c-1.4-1.4-1.3-3.6,0.1-5l70.5-49.6
	c1.4-1.4,3.7-1.4,5-0.1l63.3,57.8C339.8,146.8,337.9,150.5,338.1,149.6z"/>
<g>
	<polygon points="100.7,518.5 12,223.4 261,337 338.9,652 	"/>
	<path d="M16,227.9l242.9,110.9L335,647L102.8,516.8L16,227.9 M8,218.8l90.6,301.4L342.7,657l-79.5-321.7L8,218.8L8,218.8z"/>
</g>
<g>
	<polygon points="446.5,388.6 617.2,265.4 521.9,463.1 397.1,561.5 	"/>
	<path d="M610.6,273.2l-90.8,188.3l-118.2,93.2l47-164.6L610.6,273.2 M623.7,257.6L444.4,387l-51.8,181.2l131.3-103.5L623.7,257.6
		L623.7,257.6z"/>
</g>
<g>
	<polygon points="13.3,218.5 95.2,167.9 352.3,265.7 262.9,332.4 	"/>
	<path d="M95.4,170.7l251.7,95.7l-84.6,63.1l-244-111.4L95.4,170.7 M94.9,165.2L8,218.8l255.2,116.5l94.3-70.3L94.9,165.2
		L94.9,165.2z"/>
</g>
<g>
	<polygon points="265,336.3 354.9,269.3 425.8,591.2 343.2,652.7 	"/>
	<path d="M353.2,273.6L423,590.2l-78.3,58.3l-76.9-311.2L353.2,273.6 M356.5,265l-94.3,70.3L341.7,657l86.9-64.7L356.5,265
		L356.5,265z"/>
</g>
<polygon class="st0" points="523.9,381.5 570.1,348.2 597.8,289 544.2,327.9 "/>
<polyline class="st2" points="566.4,353.8 512.8,392.6 492.4,446.2 538.7,412.9 566.4,353.8 "/>
<polyline class="st3" points="535,420.3 485,457.8 466.5,498.5 516.4,459.4 536.8,418.5 "/>
<polyline class="st2" points="527.6,340.8 458.2,391 437.9,444.6 499.8,400 527.6,340.8 "/>
<polyline class="st4" points="492.4,412.9 435.1,451.8 420.3,505.4 468.4,472.1 494.3,414.8 "/>
<polyline class="st4" points="464.7,479.5 416.6,516.5 418.5,536.8 455.3,507.8 464.7,479.5 "/>
<polygon class="st0" points="111.5,357.5 57.9,334.3 33.9,248.4 93.1,278 "/>
<polygon class="st5" points="183.7,388.9 130,365.7 106,279.8 165.2,309.4 "/>
<polygon class="st2" points="259.5,424 205.8,400.8 181.8,314.9 241,344.5 "/>
<polygon class="st5" points="139.3,453.6 85.6,430.4 61.6,344.5 120.8,374.1 "/>
<polygon class="st6" points="211.4,485 157.7,461.9 133.7,376 192.9,405.5 "/>
<polygon class="st7" points="287.2,520.2 233.5,497 209.5,411.1 268.7,440.7 "/>
<polygon class="st4" points="163,546 111,520 96.1,448.4 149,477 "/>
<polygon class="st2" points="237,581 179,551 163.2,479.8 220,507 "/>
<polygon class="st5" points="304.5,620.5 248.5,586.5 236.5,512.5 287.5,534.5 "/>
<polygon class="st7" points="30.2,218.8 80.1,241 148.5,198.4 93.1,176.3 "/>
<polygon class="st5" points="178.8,286.4 258.3,321.5 336,267.9 245.4,234.6 "/>
<polygon class="st4" points="93.1,248.4 163.3,279.8 230,228 158,203 "/>
<polygon class="st7" points="296.1,434.4 368,384 346,288 270.3,343.8 "/>
<polygon class="st0" points="324.5,536.5 393.5,488.5 371.5,399.5 300.1,451.8 "/>
<polygon class="st4" points="347,630 417,581 396,502 328,551 "/>
<text transform="matrix(0.7238 0 0 1 8 735.4053)"><tspan x="0" y="0" class="st5 st8 st9">S</tspan><tspan x="44.6" y="0" class="st4 st8 st9">H</tspan><tspan x="103.5" y="0" class="st7 st8 st9">Y</tspan><tspan x="152.4" y="0" class="st0 st8 st9">P</tspan><tspan x="200.5" y="0" class="st6 st8 st9">U</tspan><tspan x="258.9" y="0" class="st2 st8 st9">N</tspan><tspan x="318.4" y="0" class="st5 st8 st9">O</tspan><tspan x="380.7" y="0" class="st4 st8 st9">V</tspan><tspan x="431.1" y="0" class="st7 st8 st9">’</tspan><tspan x="449.8" y="0" class="st0 st8 st9">S</tspan><tspan x="494.4" y="0" class="st8 st9"> </tspan><tspan x="513.5" y="0" class="st6 st8 st9">P</tspan><tspan x="561.6" y="0" class="st2 st8 st9">R</tspan><tspan x="610.2" y="0" class="st5 st8 st9">O</tspan><tspan x="672.5" y="0" class="st4 st8 st9">J</tspan><tspan x="705.9" y="0" class="st7 st8 st9">E</tspan><tspan x="750.4" y="0" class="st0 st8 st9">C</tspan><tspan x="802.8" y="0" class="st6 st8 st9">T</tspan></text>
</svg>
