<?xml version="1.0" encoding="utf-8"?>
<!-- Generator: Adobe Illustrator 21.0.0, SVG Export Plug-In . SVG Version: 6.00 Build 0)  -->
<svg version="1.1" id="Слой_1" xmlns="http://www.w3.org/2000/svg" xmlns:xlink="http://www.w3.org/1999/xlink" x="0px" y="0px"
	 viewBox="0 0 22 33" style="enable-background:new 0 0 22 33;" xml:space="preserve">
<g>
	<path d="M17,1.8c1.7,0,3,1.3,3,3v22.6c0,1.7-1.3,3-3,3H5c-1.7,0-3-1.3-3-3V4.8c0-1.7,1.3-3,3-3H17 M17,0.8H5c-2.2,0-4,1.8-4,4v22.6
		c0,2.2,1.8,4,4,4h12c2.2,0,4-1.8,4-4V4.8C21,2.6,19.2,0.8,17,0.8L17,0.8z"/>
</g>
<g>
	<path d="M16.9,4.8c0.6,0,1,0.4,1,1V23c0,0.6-0.4,1-1,1H5.1c-0.6,0-1-0.4-1-1V5.8c0-0.6,0.4-1,1-1H16.9 M16.9,3.8H5.1
		c-1.1,0-2,0.9-2,2V23c0,1.1,0.9,2,2,2h11.8c1.1,0,2-0.9,2-2V5.8C18.9,4.7,18,3.8,16.9,3.8L16.9,3.8z"/>
</g>
<g>
	<path d="M11.2,26.9c0.6,0,1,0.4,1,1s-0.4,1-1,1s-1-0.4-1-1S10.7,26.9,11.2,26.9 M11.2,25.9c-1.1,0-2,0.9-2,2s0.9,2,2,2
		c1.1,0,2-0.9,2-2S12.3,25.9,11.2,25.9L11.2,25.9z"/>
</g>
<g>
	<path d="M15.2,2.9H6.3c-0.1,0-0.1-0.1-0.1-0.1v0c0-0.1,0.1-0.1,0.1-0.1h8.9c0.1,0,0.1,0.1,0.1,0.1v0C15.4,2.8,15.3,2.9,15.2,2.9z"
		/>
	<path d="M15.2,2.6H6.3c-0.1,0-0.1,0.1-0.1,0.1c0,0.1,0.1,0.1,0.1,0.1h8.9c0.1,0,0.1-0.1,0.1-0.1C15.4,2.7,15.3,2.6,15.2,2.6
		L15.2,2.6z"/>
</g>
</svg>
