<?xml version="1.0" encoding="utf-8"?>
<!-- Generator: Adobe Illustrator 21.0.0, SVG Export Plug-In . SVG Version: 6.00 Build 0)  -->
<svg version="1.1" id="Слой_1" xmlns="http://www.w3.org/2000/svg" xmlns:xlink="http://www.w3.org/1999/xlink" x="0px" y="0px"
	 viewBox="0 0 200 200" style="enable-background:new 0 0 200 200;" xml:space="preserve">
<style type="text/css">
	.st0{fill:none;stroke:#FFFFFF;stroke-width:6;stroke-miterlimit:10;}
	.st1{fill:none;stroke:#FFFFFF;stroke-width:2;stroke-miterlimit:10;}
</style>
<path class="st0" d="M53.8,157.5h93.4c6.1,0,11-4.9,11-11V53.1c0-6-4.9-11-11-11H53.8c-6,0-11,5-11,11v93.4
	C42.8,152.5,47.8,157.5,53.8,157.5z"/>
<path class="st1" d="M147.2,157.4H53.9c-6,0-11-4.9-11-11V53.1c0-6,5-11,11-11h93.3c6.1,0,11,5,11,11v93.3
	C158.2,152.4,153.3,157.4,147.2,157.4z"/>
<path class="st1" d="M140.6,70.7H136c-5.5,0-10-4.5-10-10v0c0-5.5,4.5-10,10-10h4.6c5.5,0,10,4.5,10,10v0
	C150.6,66.2,146.1,70.7,140.6,70.7z"/>
<path class="st1" d="M139.3,67h-2.1c-3.4,0-6.3-2.8-6.3-6.3v0c0-3.4,2.8-6.3,6.3-6.3h2.1c3.4,0,6.3,2.8,6.3,6.3v0
	C145.6,64.2,142.8,67,139.3,67z"/>
<path class="st1" d="M70.6,71.8L70.6,71.8c-1.5,0-2.8-1.2-2.8-2.8V51.9c0-1.5,1.2-2.8,2.8-2.8l0,0c1.5,0,2.8,1.2,2.8,2.8V69
	C73.4,70.6,72.1,71.8,70.6,71.8z"/>
<path class="st1" d="M56.6,71.8L56.6,71.8c-1.5,0-2.8-1.2-2.8-2.8V51.9c0-1.5,1.2-2.8,2.8-2.8h0c1.5,0,2.8,1.2,2.8,2.8V69
	C59.4,70.6,58.1,71.8,56.6,71.8z"/>
<path class="st1" d="M63.6,71.8L63.6,71.8c-1.5,0-2.8-1.2-2.8-2.8V51.9c0-1.5,1.2-2.8,2.8-2.8h0c1.5,0,2.8,1.2,2.8,2.8V69
	C66.4,70.6,65.1,71.8,63.6,71.8z"/>
<path class="st1" d="M51.1,71.8L51.1,71.8c-1.5,0-2.8-1.2-2.8-2.8V53.5c0-1.5,1.2-2.8,2.8-2.8h0c1.5,0,2.8,1.2,2.8,2.8V69
	C53.9,70.6,52.6,71.8,51.1,71.8z"/>
<line class="st1" x1="123.9" y1="76.7" x2="155.9" y2="76.7"/>
<path class="st1" d="M118.4,76.7"/>
<line class="st1" x1="45.4" y1="76.8" x2="76" y2="76.8"/>
<circle class="st1" cx="100" cy="93" r="29"/>
<circle class="st1" cx="100" cy="93" r="21.6"/>
<circle class="st1" cx="100" cy="93" r="18"/>
</svg>
