<?xml version="1.0" encoding="utf-8"?>
<!-- Generator: Adobe Illustrator 21.0.0, SVG Export Plug-In . SVG Version: 6.00 Build 0)  -->
<svg version="1.1" id="Слой_1" xmlns="http://www.w3.org/2000/svg" xmlns:xlink="http://www.w3.org/1999/xlink" x="0px" y="0px"
	 viewBox="0 0 100 106" style="enable-background:new 0 0 100 106;" xml:space="preserve">
<style type="text/css">
	.st0{fill:#FFFFFF;}
</style>
<g>
	<path class="st0" d="M16.4,92.4c-0.7,0-1.3-0.2-1.8-0.7c-0.6-0.5-0.9-1.2-1-1.9s0.2-1.5,0.7-2l64.2-74.5c0.5-0.6,1.3-1,2.1-1
		c0.7,0,1.3,0.2,1.8,0.7c0.6,0.5,0.9,1.2,1,1.9c0.1,0.8-0.2,1.5-0.7,2L18.5,91.4C18,92.1,17.2,92.4,16.4,92.4z"/>
	<path class="st0" d="M80.6,13.8L80.6,13.8c0.2,0,0.5,0.1,0.8,0.3c0.5,0.5,0.6,1.3,0.1,1.8L17.4,90.5c-0.2,0.3-0.6,0.4-1,0.4
		c-0.2,0-0.5-0.1-0.8-0.3c-0.5-0.5-0.6-1.3-0.1-1.8l64.2-74.5C79.9,14,80.2,13.8,80.6,13.8 M80.6,10.8c-1.2,0-2.4,0.5-3.3,1.5
		L13.1,86.8c-1.5,1.8-1.3,4.5,0.5,6.1h0c0.8,0.7,1.8,1,2.8,1c1.2,0,2.4-0.5,3.3-1.5l64.2-74.5c1.5-1.8,1.3-4.5-0.5-6.1
		C82.6,11.1,81.6,10.8,80.6,10.8L80.6,10.8z"/>
</g>
<g>
	<path class="st0" d="M84.3,91.1c-0.8,0-1.5-0.3-2-0.8L12.7,20.7c-0.5-0.5-0.8-1.2-0.8-2c0-0.8,0.3-1.5,0.8-2c0.5-0.5,1.2-0.8,2-0.8
		c0.8,0,1.5,0.3,2,0.8l69.6,69.6c1.1,1.1,1.1,2.9,0,4C85.7,90.8,85,91.1,84.3,91.1z"/>
	<path class="st0" d="M14.7,17.4c0.2,0,0.6,0,0.9,0.4l69.6,69.6c0.3,0.3,0.4,0.7,0.4,0.9c0,0.2,0,0.6-0.4,0.9
		c-0.3,0.3-0.7,0.4-0.9,0.4c-0.2,0-0.6,0-0.9-0.4L13.8,19.6c-0.5-0.5-0.5-1.3,0-1.8C14.1,17.5,14.5,17.4,14.7,17.4 M14.7,14.4
		c-1.1,0-2.2,0.4-3,1.3l0,0c-1.7,1.7-1.7,4.4,0,6.1l69.6,69.6c0.8,0.8,1.9,1.3,3,1.3c1.1,0,2.2-0.4,3-1.3v0c1.7-1.7,1.7-4.4,0-6.1
		L17.8,15.7C16.9,14.8,15.8,14.4,14.7,14.4L14.7,14.4z"/>
</g>
</svg>
