<?xml version="1.0" encoding="utf-8"?>
<!-- Generator: Adobe Illustrator 21.0.0, SVG Export Plug-In . SVG Version: 6.00 Build 0)  -->
<svg version="1.1" id="Слой_1" xmlns="http://www.w3.org/2000/svg" xmlns:xlink="http://www.w3.org/1999/xlink" x="0px" y="0px"
	 viewBox="0 0 491 661" style="enable-background:new 0 0 491 661;" xml:space="preserve">
<style type="text/css">
	.st0{fill:none;stroke:#FFFFFF;stroke-miterlimit:10;}
	.st1{stroke:#FFFFFF;stroke-miterlimit:10;}
	.st2{font-family:'MinionPro-Regular';}
	.st3{font-size:21.7904px;}
	.st4{fill:none;stroke:#FFFFFF;stroke-width:0.75;stroke-miterlimit:10;}
	.st5{fill:none;stroke:#FFFFFF;stroke-width:0.5;stroke-miterlimit:10;}
	.st6{font-size:7.2634px;}
</style>
<g>
	<path class="st0" d="M245,308.8c-82.6,0-149.8-67.2-149.8-149.8S162.4,9.2,245,9.2S394.8,76.4,394.8,159S327.6,308.8,245,308.8z"/>
	<path class="st0" d="M245,10.7c39.6,0,76.9,15.4,104.9,43.4s43.4,65.3,43.4,104.9s-15.4,76.9-43.4,104.9s-65.3,43.4-104.9,43.4
		s-76.9-15.4-104.9-43.4S96.7,198.6,96.7,159s15.4-76.9,43.4-104.9S205.4,10.7,245,10.7 M245,7.7C161.4,7.7,93.7,75.4,93.7,159
		S161.4,310.3,245,310.3S396.3,242.6,396.3,159S328.6,7.7,245,7.7L245,7.7z"/>
</g>
<g>
	<path class="st0" d="M263.5,649.9c-11.3,0-18.3-0.4-18.4-0.4H245h-0.1c-0.1,0-7.1,0.4-18.4,0.4c-27.1,0-79.3-2.3-124.7-17.5
		c-55.4-18.6-83.5-50.2-83.5-94.2c0-60.6,23.6-117.6,66.5-160.4c42.9-42.9,99.8-66.5,160.4-66.5s117.6,23.6,160.4,66.5
		c42.9,42.9,66.5,99.8,66.5,160.4c0,44-28.1,75.7-83.6,94.2C343,647.6,290.6,649.9,263.5,649.9z"/>
	<path class="st0" d="M245.2,312.8c30.4,0,59.9,6,87.7,17.7c26.8,11.4,50.9,27.6,71.6,48.3s37,44.8,48.3,71.6
		c11.8,27.8,17.7,57.3,17.7,87.7c0,43.2-27.8,74.5-82.6,92.8c-45.3,15.1-97.5,17.4-124.5,17.4c-11.3,0-18.3-0.4-18.3-0.4h-0.2h-0.2
		c-0.1,0-7,0.4-18.3,0.4c-27,0-79-2.3-124.3-17.4c-54.7-18.3-82.4-49.5-82.4-92.8c0-30.4,6-59.9,17.7-87.7
		c11.4-26.8,27.6-50.9,48.3-71.6s44.8-37,71.6-48.3C185.3,318.8,214.8,312.8,245.2,312.8 M245.2,309.8
		c-126.1,0-228.4,102.3-228.4,228.4c0,104.1,155.4,113.2,209.7,113.2c11.5,0,18.5-0.4,18.5-0.4s7,0.4,18.5,0.4
		c54.4,0,210.1-9.1,210.1-113.2C473.6,412.1,371.4,309.8,245.2,309.8L245.2,309.8z"/>
</g>
<path class="st0" d="M99,121c106.6,37,203.9,37.2,293,3"/>
<path class="st0" d="M107,97c100.9,31.6,192.8,31.8,277,2.8"/>
<line class="st0" x1="118" y1="100" x2="110" y2="125"/>
<line class="st0" x1="128" y1="104" x2="120" y2="129"/>
<line class="st0" x1="137.3" y1="106.8" x2="130.7" y2="132.2"/>
<line class="st0" x1="147.3" y1="108.8" x2="140.7" y2="134.2"/>
<line class="st0" x1="156" y1="109.7" x2="149.5" y2="135.1"/>
<line class="st0" x1="165.2" y1="112.1" x2="158.7" y2="137.5"/>
<line class="st0" x1="176.4" y1="114.5" x2="169.9" y2="139.9"/>
<line class="st0" x1="186.5" y1="116.9" x2="180" y2="142.3"/>
<line class="st0" x1="196.5" y1="117.4" x2="190.4" y2="142.9"/>
<line class="st0" x1="207" y1="118" x2="200.7" y2="146.2"/>
<line class="st0" x1="214.2" y1="119.7" x2="209.7" y2="145.5"/>
<line class="st0" x1="223.3" y1="120.9" x2="218.8" y2="146.8"/>
<line class="st0" x1="232.1" y1="121.1" x2="228" y2="148"/>
<line class="st0" x1="240.5" y1="121.8" x2="237" y2="149"/>
<line class="st0" x1="270.2" y1="121.2" x2="273" y2="149"/>
<line class="st0" x1="279" y1="120" x2="284" y2="147.8"/>
<line class="st0" x1="289.3" y1="120.6" x2="293.7" y2="146.5"/>
<line class="st0" x1="298" y1="119.5" x2="302.4" y2="145.4"/>
<line class="st0" x1="306.5" y1="118.7" x2="312.4" y2="144.3"/>
<line class="st0" x1="315.3" y1="117.9" x2="321.2" y2="143.5"/>
<line class="st0" x1="323.5" y1="115.7" x2="329.4" y2="141.2"/>
<line class="st0" x1="332.8" y1="114.5" x2="338.7" y2="140.1"/>
<line class="st0" x1="341.8" y1="112.5" x2="347.7" y2="138.1"/>
<line class="st0" x1="350.8" y1="110" x2="356.8" y2="135.6"/>
<line class="st0" x1="358.9" y1="107.9" x2="365.3" y2="133.3"/>
<line class="st0" x1="366.5" y1="105" x2="372.9" y2="130.5"/>
<line class="st0" x1="374.9" y1="103.5" x2="382.8" y2="128.5"/>
<line class="st0" x1="247.4" y1="120.8" x2="245.6" y2="149"/>
<text transform="matrix(1 0 0 1 278.0879 395.2705)" class="st1 st2 st3">SMOKER</text>
<text transform="matrix(1 0 0 1 278.0879 395.2705)" class="st0 st2 st3">SMOKER</text>
<text transform="matrix(1 0 0 1 278.0879 395.2705)" class="st4 st2 st3">SMOKER</text>
<text transform="matrix(1 0 0 1 288.1211 408.8711)" class="st5 st2 st6">PARADISE FOR YOU</text>
<polyline class="st0" points="287.2,406.3 264.4,406.3 264.4,368 376,368 376,406.3 355.8,406.3 "/>
<path class="st0" d="M228.2,504.5"/>
<line class="st0" x1="255.5" y1="121.4" x2="256" y2="149"/>
<line class="st0" x1="263.2" y1="121.3" x2="264" y2="149"/>
</svg>
