<?xml version="1.0" encoding="utf-8"?>
<!-- Generator: Adobe Illustrator 21.0.0, SVG Export Plug-In . SVG Version: 6.00 Build 0)  -->
<svg version="1.1" id="Слой_1" xmlns="http://www.w3.org/2000/svg" xmlns:xlink="http://www.w3.org/1999/xlink" x="0px" y="0px"
	 viewBox="0 0 321 645" style="enable-background:new 0 0 321 645;" xml:space="preserve">
<style type="text/css">
	.st0{fill:none;stroke:#FFFFFF;stroke-width:3;stroke-miterlimit:10;}
	.st1{stroke:#FFFFFF;stroke-width:3;stroke-miterlimit:10;}
	.st2{fill:none;stroke:#FFFFFF;stroke-miterlimit:10;}
	.st3{stroke:#FFFFFF;stroke-miterlimit:10;}
	.st4{font-family:'AdobeArabic-Regular';}
	.st5{font-size:11.9993px;}
</style>
<path class="st0" d="M198.8,549"/>
<path class="st0" d="M215.6,535.5c8.3-16.2,13.1-34.9,13.1-54.8c0-62.7-46.8-79.1-104.9-79.1S18.2,418,18.2,480.7
	s47.1,113.5,105.2,113.5c28.8,0,32.1,5.4,51.1-14.8"/>
<path class="st0" d="M206.2,538.4"/>
<path class="st0" d="M204,540.6"/>
<path class="st0" d="M191,373.4c0,37.3-31.9,29.9-71.3,29.9s-71.3,7.4-71.3-29.9s31.9-67.6,71.3-67.6S191,336.1,191,373.4z"/>
<path class="st0" d="M42.7,482.6c-3.5,41.3,18.6,64.9,66.5,70.9"/>
<path class="st0" d="M171,625.5H68.1c-8.5,0-15.5-7-15.5-15.5v-0.3c0-8.5,7-15.5,15.5-15.5H171c8.5,0,15.5,7,15.5,15.5v0.3
	C186.4,618.5,179.5,625.5,171,625.5z"/>
<path class="st0" d="M106,305.9v-68.2"/>
<path class="st0" d="M133.9,237.7v68.2"/>
<circle class="st0" cx="119.6" cy="202.4" r="38.2"/>
<path class="st0" d="M106,165.6V97.4"/>
<path class="st0" d="M133.9,97.4v68.2"/>
<path class="st0" d="M171,97H68.1c-8.5,0-15.5-7-15.5-15.5v-0.3c0-8.5,7-15.5,15.5-15.5H171c8.5,0,15.5,7,15.5,15.5v0.3
	C186.4,90,179.5,97,171,97z"/>
<path class="st0" d="M106,66.3c7.2-9.6,4.5-18.1,0-26.3"/>
<path class="st0" d="M133.9,40c-5.7,9.7-8.4,19,0,26.3"/>
<path class="st0" d="M137.3,10h-33.9C94.9,10,88,17,88,25.5v0.3c0,8.5,7,15.5,15.5,15.5h33.9c8.5,0,15.5-7,15.5-15.5v-0.3
	C152.8,17,145.8,10,137.3,10z"/>
<path class="st0" d="M154,191.2c95.6-59.4,163.2-0.7,25,83.5"/>
<path class="st0" d="M202.6,348.6c-62.3,53.4-112,0.9-21.9-74.9"/>
<path class="st0" d="M138.8,265.2c89.4-68.3,188.1-9.9,58.6,87.3"/>
<path class="st0" d="M133.6,270.1c1.7-1.7,3.4-3.3,5.2-4.8"/>
<path class="st0" d="M240.6,575.4c-6.1,2.6-12.5,4.9-19.2,5.6c-6.8,0.7-13.5-0.9-20.1-2.8c-12.4-3.6-24.3-10-34-18.5
	c-4.7-4.2-9.5-7.8-13.8-12.4c-4.1-4.4-8-8.8-11.8-13.4c-7.6-9.2-14.5-18.8-20.8-28.9c-12.6-20.1-22.5-41.8-29.4-64.5
	c-6.9-22.6-10.6-46.2-10.9-69.8c-0.3-25.9,5-52.3,20.2-73.8c1.8-2.6,3.9-4.8,6-7.2"/>
<line class="st0" x1="172.5" y1="171.7" x2="180.7" y2="186.4"/>
<path class="st1" d="M292.9,543.6c-10.9,7.8-31.6,20.8-46.2,28.7c-16.6,9-14.8,5.7,2.9-6.2c14.8-10,34-21.4,43.9-26.4
	C302.5,535.3,302.4,536.9,292.9,543.6z"/>
<path class="st0" d="M266.5,613.1L229,641.5c-3.3,2.5-8,1.8-10.5-1.4l-57.4-75.7c-2.5-3.3-1.8-8,1.4-10.5l37.4-28.4
	c3.3-2.5,8-1.8,10.5,1.4l57.4,75.7C270.4,605.9,269.7,610.6,266.5,613.1z"/>
<path class="st2" d="M235.2,617.8c2.5,3.5,1.9,8.2-1.4,10.5c-3.2,2.3-7.9,1.3-10.3-2.2c-2.5-3.5-0.5-6.3,2.7-8.6
	C229.5,615.2,232.7,614.3,235.2,617.8z"/>
<path class="st2" d="M228.9,613.3c1.5,2.1-0.6,2.9-2.8,4.5s-3.7,3.2-5.1,1.1s-0.9-5,1.3-6.6S227.4,611.2,228.9,613.3z"/>
<path class="st2" d="M224.9,625.2c1.4,2.4,3.6,2.9,6.5,1.3"/>
<path class="st2" d="M237.7,628.1l-5.7,4c-0.5,0.3-1.1,0.2-1.5-0.3l0,0c-0.3-0.5-0.2-1.1,0.3-1.5l5.7-4c0.5-0.3,1.1-0.2,1.5,0.3l0,0
	C238.3,627.1,238.2,627.8,237.7,628.1z"/>
<path class="st2" d="M221.5,612.9l-2.7-3.8"/>
<path class="st2" d="M220.3,608l2.7,3.8"/>
<ellipse transform="matrix(0.8155 -0.5787 0.5787 0.8155 -310.7834 238.1558)" class="st2" cx="218.2" cy="606.6" rx="2.6" ry="2.6"/>
<path class="st2" d="M215.9,605.1l-2.7-3.8"/>
<path class="st2" d="M214.8,600.2l2.7,3.8"/>
<path class="st2" d="M216.8,598.7l-5.7,4c-0.5,0.3-1.1,0.2-1.5-0.3l0,0c-0.3-0.5-0.2-1.1,0.3-1.5l5.7-4c0.5-0.3,1.1-0.2,1.5,0.3l0,0
	C217.4,597.7,217.3,598.4,216.8,598.7z"/>
<path class="st2" d="M212,599.6c0-0.8-0.5-1.2-1-1.5"/>
<path class="st2" d="M212.5,597c0.1,0.8,0.3,1.4,1,1.5"/>
<path class="st2" d="M211.5,595.2l-1.9,1.3c-0.5,0.3-0.6,1-0.3,1.5l0,0c0.3,0.5,1,0.6,1.5,0.3l1.9-1.3c0.5-0.3,0.6-1,0.3-1.5l0,0
	C212.7,595,212,594.9,211.5,595.2z"/>
<path class="st2" d="M219.6,604.6c3-7.1,9-6.5,4.7,3.7"/>
<path class="st2" d="M228.5,611.4c-1.4,5.4-6.2,4.5-4.2-3.3"/>
<path class="st2" d="M221.7,609.3c2.3-7.3,10.1-8,6.7,2.5"/>
<path class="st2" d="M221.6,609.8c0-0.2,0.1-0.3,0.1-0.5"/>
<path class="st2" d="M239.6,622.6c-0.2,0.4-0.5,0.8-0.8,1.1c-0.4,0.3-0.8,0.5-1.2,0.6c-0.8,0.3-1.7,0.4-2.6,0.3
	c-0.4,0-0.8-0.1-1.3-0.1c-0.4-0.1-0.8-0.2-1.2-0.3c-0.8-0.2-1.6-0.5-2.3-0.8c-1.5-0.6-2.9-1.4-4.2-2.4s-2.4-2.1-3.4-3.5
	s-1.8-3.1-1.8-4.9c0-0.2,0-0.4,0-0.6"/>
<line class="st2" x1="219.9" y1="602.8" x2="220.9" y2="603.3"/>
<path class="st2" d="M241.3,618.7c-0.3,0.9-0.9,2.4-1.4,3.4c-0.6,1.2-0.6,0.9-0.1-0.5c0.4-1.1,1-2.5,1.4-3.2
	C241.5,617.9,241.5,618,241.3,618.7z"/>
<line class="st0" x1="226.5" y1="548.5" x2="178.5" y2="587.5"/>
<text transform="matrix(0.8041 -0.5944 0.5944 0.8041 217.2688 577.4373)" class="st3 st4 st5">السعر</text>
</svg>
