<?xml version="1.0" encoding="utf-8"?>
<!-- Generator: Adobe Illustrator 21.0.0, SVG Export Plug-In . SVG Version: 6.00 Build 0)  -->
<svg version="1.1" id="Слой_1" xmlns="http://www.w3.org/2000/svg" xmlns:xlink="http://www.w3.org/1999/xlink" x="0px" y="0px"
	 viewBox="0 0 63.9 47.8" style="enable-background:new 0 0 63.9 47.8;" xml:space="preserve">
<style type="text/css">
	.st0{fill:#FFFFFF;}
</style>
<path class="st0" d="M5.9,1.8h51.9c2.4,0,4.3,2,4.3,4.3l0,0c0,2.4-2,4.3-4.3,4.3H5.9c-2.4,0-4.3-2-4.3-4.3l0,0
	C1.6,3.8,3.6,1.8,5.9,1.8z"/>
<path class="st0" d="M5.9,19.1h51.9c2.4,0,4.3,2,4.3,4.3l0,0c0,2.4-2,4.3-4.3,4.3H5.9c-2.4,0-4.3-2-4.3-4.3l0,0
	C1.6,21.1,3.6,19.1,5.9,19.1z"/>
<path class="st0" d="M5.9,36.4h51.9c2.4,0,4.3,2,4.3,4.3l0,0c0,2.4-2,4.3-4.3,4.3H5.9c-2.4,0-4.3-2-4.3-4.3l0,0
	C1.6,38.4,3.6,36.4,5.9,36.4z"/>
</svg>
