<?xml version="1.0" encoding="utf-8"?>
<!-- Generator: Adobe Illustrator 21.0.0, SVG Export Plug-In . SVG Version: 6.00 Build 0)  -->
<svg version="1.1" id="Слой_1" xmlns="http://www.w3.org/2000/svg" xmlns:xlink="http://www.w3.org/1999/xlink" x="0px" y="0px"
	 viewBox="0 0 750 692" style="enable-background:new 0 0 750 692;" xml:space="preserve">
<style type="text/css">
	.st0{fill:none;stroke:#FFFFFF;stroke-miterlimit:10;}
	.st1{fill:none;stroke:#FFFFFF;stroke-width:3;stroke-miterlimit:10;}
	.st2{fill:#FFFFFF;stroke:#FFFFFF;stroke-miterlimit:10;}
	.st3{font-family:'SignPainter-HouseScript';}
	.st4{font-size:69.6679px;}
</style>
<g>
	<path class="st0" d="M255.5,676.9c-11.3,0-18.3-0.4-18.4-0.4H237h-0.1c-0.1,0-7.1,0.4-18.4,0.4c-27.1,0-79.3-2.3-124.7-17.5
		c-55.4-18.6-83.5-50.2-83.5-94.2c0-60.6,23.6-117.6,66.5-160.4s99.8-66.5,160.4-66.5s117.6,23.6,160.4,66.5s66.5,99.8,66.5,160.4
		c0,44-28.1,75.7-83.6,94.2C335,674.6,282.6,676.9,255.5,676.9z"/>
	<path class="st0" d="M237.2,339.8c30.4,0,59.9,6,87.7,17.7c26.8,11.4,50.9,27.6,71.6,48.3s37,44.8,48.3,71.6
		c11.8,27.8,17.7,57.3,17.7,87.7c0,43.2-27.8,74.5-82.6,92.8c-45.3,15.1-97.5,17.4-124.5,17.4c-11.3,0-18.3-0.4-18.3-0.4h-0.2h-0.2
		c-0.1,0-7,0.4-18.3,0.4c-27,0-79-2.3-124.3-17.4c-54.7-18.3-82.4-49.5-82.4-92.8c0-30.4,6-59.9,17.7-87.7
		c11.4-26.8,27.6-50.9,48.3-71.6s44.8-37,71.6-48.3C177.3,345.8,206.8,339.8,237.2,339.8 M237.2,336.8
		C111.1,336.8,8.8,439.1,8.8,565.2c0,104.1,155.4,113.2,209.7,113.2c11.5,0,18.5-0.4,18.5-0.4s7,0.4,18.5,0.4
		c54.4,0,210.1-9.1,210.1-113.2C465.6,439.1,363.4,336.8,237.2,336.8L237.2,336.8z"/>
</g>
<g>
	<line class="st1" x1="422.5" y1="431.5" x2="479.5" y2="374.5"/>
</g>
<line class="st1" x1="385.5" y1="295.5" x2="480.5" y2="375.5"/>
<path class="st1" d="M381.6,340.8l-34.6-20c-1.9-1.1-2.6-3.6-1.5-5.5l38.5-66.7c1.1-1.9,3.6-2.6,5.5-1.5l34.6,20
	c1.9,1.1,2.6,3.6,1.5,5.5L387,339.3C385.9,341.2,383.5,341.9,381.6,340.8z"/>
<ellipse class="st1" cx="392" cy="282.5" rx="6.5" ry="6"/>
<path class="st1" d="M392.3,260l-5.5-3.1c-1.4-0.8-1.9-2.7-1.1-4.1l0,0c0.8-1.4,2.7-1.9,4.1-1.1l5.5,3.1c1.4,0.8,1.9,2.7,1.1,4.1
	l0,0C395.6,260.3,393.7,260.8,392.3,260z"/>
<ellipse transform="matrix(0.9156 -0.402 0.402 0.9156 12.9359 255.6483)" class="st1" cx="615.6" cy="97" rx="124.6" ry="78"/>
<circle class="st1" cx="487" cy="186" r="18"/>
<text transform="matrix(0.9028 -0.43 0.43 0.9028 586.3126 136.4945)" class="st2 st3 st4">HEY</text>
<circle class="st1" cx="237.9" cy="186.6" r="149.4"/>
<circle class="st1" cx="422.5" cy="232.1" r="6.1"/>
<circle class="st1" cx="451" cy="215.7" r="9"/>
</svg>
